<svg width="433" height="92" viewBox="0 0 433 92" fill="none" xmlns="http://www.w3.org/2000/svg" role="img" aria-label="celery_farm">
  <defs>
    <linearGradient id="sg" x1="0" y1="0" x2="1" y2="1">
      <stop stop-color="#22A559"/><stop offset="1" stop-color="#15803D"/>
    </linearGradient>
    <g id="sc">
      <g stroke="#DCFCE7" stroke-width="3" stroke-linecap="round" fill="none">
        <path d="M0 0 C -2 -8 -4 -13 -5 -18"/>
        <path d="M0 0 C 0 -8 0 -15 0 -21"/>
        <path d="M0 0 C 2 -8 4 -13 5 -18"/>
      </g>
      <g fill="#86EFAC">
        <circle cx="0" cy="-23" r="4.2"/>
        <circle cx="-5.5" cy="-19" r="3.6"/>
        <circle cx="5.5" cy="-19" r="3.6"/>
        <circle cx="-2.5" cy="-26" r="3.2"/>
        <circle cx="3" cy="-25" r="3.2"/>
      </g>
      <g fill="#22C55E">
        <circle cx="-3" cy="-20" r="2"/>
        <circle cx="4" cy="-21" r="2"/>
        <circle cx="0.5" cy="-24" r="1.8"/>
      </g>
    </g>
  </defs>

  <!-- S2 square icon (68px), vertically centered -->
  <g transform="translate(14 12) scale(0.5152)">
    <rect x="0" y="0" width="132" height="132" rx="30" fill="url(#sg)"/>
    <g transform="translate(66 66) scale(1.0) translate(-64 -52)">
      <path d="M44 4c-15 0-15 12-15 23 0 8-6 11-13 11 7 0 13 3 13 11 0 11 0 23 15 23"
            stroke="#FFFFFF" stroke-width="7.5" stroke-linecap="round" fill="none"/>
      <path d="M84 4c15 0 15 12 15 23 0 8 6 11 13 11-7 0-13 3-13 11 0 11 0 23-15 23"
            stroke="#FFFFFF" stroke-width="7.5" stroke-linecap="round" fill="none"/>
      <path d="M40 78 Q64 72 88 78" stroke="#FFFFFF" stroke-width="4" stroke-linecap="round" fill="none"/>
      <g stroke="#5FBE86" stroke-width="2.4" stroke-linecap="round">
        <path d="M64 78 L50 92"/><path d="M64 78 L64 94"/><path d="M64 78 L78 92"/>
      </g>
      <use href="#sc" transform="translate(53 76) scale(0.85)"/>
      <use href="#sc" transform="translate(75 76) scale(0.85)"/>
      <use href="#sc" transform="translate(64 74) scale(1.06)"/>
    </g>
  </g>

  <!-- wordmark -->
  <g transform="translate(98 0)">
    <text x="0" y="50" font-family="'DejaVu Sans Mono','SFMono-Regular',Menlo,Consolas,monospace" font-size="38" font-weight="700" fill="#16A34A">celery<tspan fill="#22C55E">_</tspan>farm</text>
    <text x="2" y="73" font-family="'DejaVu Sans','Segoe UI',Helvetica,Arial,sans-serif" font-size="14.5" fill="#6B9E7E">OpenAPI &amp; REST endpoints for your Celery tasks</text>
  </g>
</svg>
